<svg 
 xmlns="http://www.w3.org/2000/svg"
 xmlns:xlink="http://www.w3.org/1999/xlink"
 width="14px" height="14px">
<defs>
<linearGradient id="PSgrad_0" x1="0%" x2="0%" y1="100%" y2="0%">
  <stop offset="0%" stop-color="rgb(220,40,44)" stop-opacity="1" />
  <stop offset="100%" stop-color="rgb(253,111,114)" stop-opacity="1" />
</linearGradient>

</defs>
<path fill-rule="evenodd"  fill="url(#PSgrad_0)"
 d="M7.000,13.988 C3.140,13.988 0.011,10.859 0.011,7.000 C0.011,3.139 3.140,0.010 7.000,0.010 C10.860,0.010 13.989,3.139 13.989,7.000 C13.985,10.857 10.858,13.983 7.000,13.988 ZM7.000,1.757 C4.105,1.757 1.758,4.104 1.758,7.000 C1.758,9.894 4.105,12.241 7.000,12.241 C9.895,12.241 12.242,9.894 12.242,7.000 C12.238,4.106 9.893,1.760 7.000,1.757 ZM3.988,7.787 L6.126,6.449 L6.126,3.664 L7.874,3.664 L7.874,7.415 L4.915,9.268 L3.988,7.787 Z"/>
</svg>