<svg 
 xmlns="http://www.w3.org/2000/svg"
 xmlns:xlink="http://www.w3.org/1999/xlink"
 width="14px" height="14px">
<defs>
<linearGradient id="PSgrad_0" x1="0%" x2="0%" y1="100%" y2="0%">
  <stop offset="0%" stop-color="rgb(220,40,44)" stop-opacity="1" />
  <stop offset="100%" stop-color="rgb(253,111,114)" stop-opacity="1" />
</linearGradient>

</defs>
<path fill-rule="evenodd"  fill="url(#PSgrad_0)"
 d="M7.000,0.010 C3.140,0.010 0.011,3.139 0.011,7.000 C0.011,10.859 3.140,13.988 7.000,13.988 C10.860,13.988 13.989,10.859 13.989,7.000 C13.985,3.141 10.858,0.015 7.000,0.010 ZM7.000,12.241 C4.105,12.241 1.758,9.894 1.758,7.000 C1.758,4.104 4.105,1.757 7.000,1.757 C9.895,1.757 12.241,4.104 12.241,7.000 C12.238,9.892 9.893,12.238 7.000,12.241 ZM3.931,5.879 L9.621,4.378 L8.136,10.068 C8.049,10.378 7.727,10.559 7.418,10.472 C7.223,10.418 7.071,10.267 7.015,10.073 L6.126,7.873 L3.927,7.000 C3.617,6.910 3.439,6.587 3.528,6.279 C3.584,6.085 3.736,5.933 3.931,5.879 Z"/>
</svg>