<svg 
 xmlns="http://www.w3.org/2000/svg"
 xmlns:xlink="http://www.w3.org/1999/xlink"
 width="19px" height="17px">
<defs>
<linearGradient id="PSgrad_0" x1="0%" x2="0%" y1="100%" y2="0%">
  <stop offset="0%" stop-color="rgb(220,40,44)" stop-opacity="1" />
  <stop offset="100%" stop-color="rgb(253,111,114)" stop-opacity="1" />
</linearGradient>

</defs>
<path fill-rule="evenodd"  fill="url(#PSgrad_0)"
 d="M16.623,-0.012 L2.377,-0.012 C1.065,-0.012 0.002,1.027 0.002,2.309 L0.002,17.011 L18.998,17.011 L18.998,2.309 C18.998,1.027 17.935,-0.012 16.623,-0.012 ZM16.444,2.309 L10.797,7.830 C10.071,8.508 8.929,8.508 8.203,7.830 L2.556,2.309 L16.444,2.309 ZM2.377,14.690 L2.377,5.417 L6.523,9.472 C8.166,11.079 10.831,11.079 12.475,9.473 C12.475,9.472 12.475,9.472 12.476,9.472 L16.623,5.417 L16.623,14.690 L2.377,14.690 Z"/>
</svg>