<svg 
 xmlns="http://www.w3.org/2000/svg"
 xmlns:xlink="http://www.w3.org/1999/xlink"
 width="19px" height="19px">
<defs>
<linearGradient id="PSgrad_0" x1="0%" x2="0%" y1="100%" y2="0%">
  <stop offset="0%" stop-color="rgb(220,40,44)" stop-opacity="1" />
  <stop offset="100%" stop-color="rgb(253,111,114)" stop-opacity="1" />
</linearGradient>

</defs>
<path fill-rule="evenodd"  fill="url(#PSgrad_0)"
 d="M11.360,11.792 C9.529,10.942 8.061,9.468 7.217,7.635 L9.573,5.280 L4.292,0.000 L1.395,2.897 C0.487,3.810 -0.019,5.047 -0.008,6.334 C-0.008,12.019 6.980,19.008 12.665,19.008 C13.952,19.018 15.190,18.513 16.102,17.605 L18.999,14.707 L13.720,9.427 L11.360,11.792 ZM14.419,15.919 C13.953,16.377 13.323,16.631 12.670,16.623 C8.696,16.623 2.377,11.005 2.377,6.334 C2.368,5.681 2.622,5.051 3.081,4.586 L4.292,3.372 L6.200,5.280 L4.397,7.083 L4.691,7.814 C5.816,10.824 8.193,13.197 11.205,14.317 L11.927,14.592 L13.720,12.799 L15.628,14.707 L14.419,15.919 Z"/>
</svg>